<svg width="28" height="28" viewBox="0 0 28 28" fill="none" xmlns="http://www.w3.org/2000/svg">
<path d="M14.0483 2.29053C20.7136 2.29053 26.1171 7.69406 26.1171 14.3593C26.1171 21.0246 20.7136 26.4281 14.0483 26.4281C7.38303 26.4281 1.97949 21.0246 1.97949 14.3593C1.97949 7.69406 7.38303 2.29053 14.0483 2.29053ZM3.62524 14.3593C3.62524 17.1237 4.72338 19.7748 6.67808 21.7295C8.63278 23.6842 11.2839 24.7824 14.0483 24.7824C16.8127 24.7824 19.4638 23.6842 21.4185 21.7295C23.3732 19.7748 24.4714 17.1237 24.4714 14.3593C24.4714 11.595 23.3732 8.94382 21.4185 6.98912C19.4638 5.03441 16.8127 3.93627 14.0483 3.93627C11.2839 3.93627 8.63278 5.03441 6.67808 6.98912C4.72338 8.94382 3.62524 11.595 3.62524 14.3593Z" fill="black"/>
<path d="M10.0837 17.1485C10.1738 17.0804 10.2767 17.0312 10.3863 17.0038C10.4958 16.9765 10.6098 16.9715 10.7213 16.9893C10.8329 17.007 10.9397 17.0471 11.0353 17.1072C11.131 17.1672 11.2135 17.2459 11.278 17.3386C11.4672 17.5482 11.6821 17.7331 11.9177 17.8888C12.5488 18.3062 13.2902 18.5258 14.0468 18.5195C15.0029 18.5195 15.7097 18.203 16.176 17.891C16.4115 17.7353 16.6264 17.5504 16.8156 17.3409L16.8391 17.3118C16.9733 17.1343 17.1726 17.0174 17.393 16.9867C17.6134 16.9561 17.8369 17.0143 18.0144 17.1485C18.1919 17.2827 18.3089 17.4819 18.3395 17.7024C18.3701 17.9228 18.3119 18.1463 18.1777 18.3238L18.1475 18.3618L18.0893 18.4323C18.0401 18.4882 17.9719 18.5654 17.8836 18.6537C17.6457 18.8895 17.3854 19.1015 17.1064 19.2866C16.1995 19.887 15.1344 20.2039 14.0468 20.1969C12.9592 20.2039 11.8942 19.887 10.9873 19.2866C10.7082 19.1015 10.4479 18.8895 10.2101 18.6537C10.1165 18.5617 10.0283 18.4642 9.94615 18.3618C9.65652 17.9906 9.69678 17.4393 10.0837 17.1485Z" fill="black"/>
<path d="M10.6931 12.9613C10.6931 13.332 10.5458 13.6876 10.2837 13.9497C10.0216 14.2119 9.66602 14.3591 9.29529 14.3591C8.92456 14.3591 8.56902 14.2119 8.30688 13.9497C8.04473 13.6876 7.89746 13.332 7.89746 12.9613C7.89746 12.5906 8.04473 12.235 8.30688 11.9729C8.56902 11.7107 8.92456 11.5635 9.29529 11.5635C9.66602 11.5635 10.0216 11.7107 10.2837 11.9729C10.5458 12.235 10.6931 12.5906 10.6931 12.9613ZM18.8005 14.3591C19.1713 14.3591 19.5268 14.2119 19.7889 13.9497C20.0511 13.6876 20.1984 13.332 20.1984 12.9613C20.1984 12.5906 20.0511 12.235 19.7889 11.9729C19.5268 11.7107 19.1713 11.5635 18.8005 11.5635C18.4298 11.5635 18.0743 11.7107 17.8121 11.9729C17.55 12.235 17.4027 12.5906 17.4027 12.9613C17.4027 13.332 17.55 13.6876 17.8121 13.9497C18.0743 14.2119 18.4298 14.3591 18.8005 14.3591Z" fill="black"/>
</svg>
