<svg width="38" height="31" viewBox="0 0 38 31" fill="none" xmlns="http://www.w3.org/2000/svg">
<rect x="0.0581055" width="37" height="31" rx="15.5" fill="#E0EEFA"/>
<path fill-rule="evenodd" clip-rule="evenodd" d="M18.5582 8.46057C18.8249 8.46057 19.0807 8.56652 19.2693 8.75512C19.4579 8.94371 19.5638 9.1995 19.5638 9.46621V9.56678C20.6996 9.79861 21.7203 10.4157 22.4534 11.3137C23.1864 12.2116 23.5866 13.3353 23.5864 14.4944V18.517L24.7982 19.8525C25.3845 20.4991 24.9259 21.5339 24.054 21.5339H20.3C20.1234 21.8396 19.8695 22.0935 19.5638 22.27C19.2581 22.4465 18.9112 22.5395 18.5582 22.5395C18.2052 22.5395 17.8584 22.4465 17.5526 22.27C17.2469 22.0935 16.993 21.8396 16.8164 21.5339H13.0624C12.1905 21.5339 11.7319 20.4981 12.3182 19.8525L13.53 18.517V14.4944C13.5298 13.3353 13.93 12.2116 14.663 11.3137C15.3961 10.4157 16.4168 9.79861 17.5526 9.56678V9.46621C17.5526 9.1995 17.6585 8.94371 17.8471 8.75512C18.0357 8.56652 18.2915 8.46057 18.5582 8.46057ZM22.0779 19.1003L22.4701 19.5307L22.9187 20.0254H14.1977L14.6473 19.5307L15.0385 19.0992V14.4944C15.0385 14.0322 15.1295 13.5745 15.3064 13.1475C15.4833 12.7204 15.7425 12.3324 16.0694 12.0056C16.3962 11.6787 16.7842 11.4195 17.2113 11.2426C17.6383 11.0657 18.096 10.9747 18.5582 10.9747C19.0204 10.9747 19.4781 11.0657 19.9052 11.2426C20.3322 11.4195 20.7202 11.6787 21.047 12.0056C21.3739 12.3324 21.6331 12.7204 21.81 13.1475C21.9869 13.5745 22.0779 14.0322 22.0779 14.4944V19.1003Z" fill="#000A8D"/>
</svg>
