<svg width="18" height="18" viewBox="0 0 18 18" fill="none" xmlns="http://www.w3.org/2000/svg">
<path d="M3.00006 13.5C3.00006 12.7044 3.31613 11.9413 3.87874 11.3787C4.44135 10.8161 5.20441 10.5 6.00006 10.5H12.0001C12.7957 10.5 13.5588 10.8161 14.1214 11.3787C14.684 11.9413 15.0001 12.7044 15.0001 13.5C15.0001 13.8978 14.842 14.2794 14.5607 14.5607C14.2794 14.842 13.8979 15 13.5001 15H4.50006C4.10224 15 3.72071 14.842 3.4394 14.5607C3.1581 14.2794 3.00006 13.8978 3.00006 13.5Z" fill="#000A8C" stroke="#000A8C" stroke-width="1.125" stroke-linejoin="round"/>
<path d="M9.00031 7.5C10.2429 7.5 11.2503 6.49264 11.2503 5.25C11.2503 4.00736 10.2429 3 9.00031 3C7.75766 3 6.75031 4.00736 6.75031 5.25C6.75031 6.49264 7.75766 7.5 9.00031 7.5Z" fill="#000A8C" stroke="#000A8C" stroke-width="1.125"/>
</svg>
