<svg width="17" height="18" viewBox="0 0 17 18" fill="none" xmlns="http://www.w3.org/2000/svg">
<path d="M15.0042 6.68476C15.6097 7.03789 16.1006 7.56183 16.4171 8.1927C16.7336 8.82356 16.8621 9.53408 16.7868 10.2376C16.7114 10.9411 16.4356 11.6072 15.993 12.1547C15.5503 12.7022 14.9599 13.1074 14.2938 13.3209C14.0583 14.403 13.4651 15.3712 12.6123 16.0653C11.7594 16.7593 10.6981 17.1375 9.60412 17.1373H7.8041C7.64497 17.1373 7.49235 17.0733 7.37983 16.9593C7.26731 16.8453 7.20409 16.6908 7.20409 16.5296C7.20409 16.3684 7.26731 16.2139 7.37983 16.0999C7.49235 15.9859 7.64497 15.9219 7.8041 15.9219H9.60412C10.3489 15.9221 11.0754 15.6885 11.6836 15.2531C12.2918 14.8178 12.7518 14.2022 13.0002 13.4911H12.6042C12.445 13.4911 12.2924 13.427 12.1799 13.3131C12.0674 13.1991 12.0041 13.0445 12.0041 12.8834V6.8063C12.0041 6.64513 12.0674 6.49056 12.1799 6.37659C12.2924 6.26262 12.445 6.1986 12.6042 6.1986H13.2042C13.3986 6.1986 13.5894 6.2144 13.7766 6.24478C13.6415 4.89676 13.0172 3.64751 12.0246 2.73908C11.032 1.83064 9.74189 1.3277 8.4041 1.3277C7.06632 1.3277 5.77616 1.83064 4.7836 2.73908C3.79103 3.64751 3.16673 4.89676 3.03164 6.24478C3.22094 6.21406 3.41234 6.19861 3.60405 6.1986H4.20406C4.36319 6.1986 4.5158 6.26262 4.62833 6.37659C4.74085 6.49056 4.80406 6.64513 4.80406 6.8063V12.8834C4.80406 13.0445 4.74085 13.1991 4.62833 13.3131C4.5158 13.427 4.36319 13.4911 4.20406 13.4911H3.60405C2.81082 13.492 2.0395 13.2275 1.40994 12.7387C0.780383 12.25 0.327827 11.5643 0.12259 10.7882C-0.0826479 10.0122 -0.0290755 9.18922 0.274983 8.44717C0.579042 7.70513 1.11656 7.08557 1.80403 6.68476C1.80403 4.91185 2.49939 3.21156 3.73715 1.95792C4.9749 0.704286 6.65366 0 8.4041 0C10.1546 0 11.8333 0.704286 13.0711 1.95792C14.3088 3.21156 15.0042 4.91185 15.0042 6.68476ZM3.60405 7.41401C2.96752 7.41401 2.35707 7.67011 1.90697 8.12598C1.45688 8.58185 1.20402 9.20014 1.20402 9.84483C1.20402 10.4895 1.45688 11.1078 1.90697 11.5637C2.35707 12.0196 2.96752 12.2757 3.60405 12.2757V7.41401ZM15.6042 9.84483C15.6042 9.20014 15.3513 8.58185 14.9012 8.12598C14.4511 7.67011 13.8407 7.41401 13.2042 7.41401V12.2757C13.8407 12.2757 14.4511 12.0196 14.9012 11.5637C15.3513 11.1078 15.6042 10.4895 15.6042 9.84483Z" fill="#000A8D"/>
<path d="M13 7V13H13.5L15.5 11.5L16 9.5L15 7.5L13 7Z" fill="#000A8D"/>
<path d="M2.5 7.5L4 7V9.5V12.5H2L1 11.5V10L1.5 8L2.5 7.5Z" fill="#000A8D"/>
<path d="M13 7V13H13.5L15.5 11.5L16 9.5L15 7.5L13 7Z" stroke="#000A8D"/>
<path d="M2.5 7.5L4 7V9.5V12.5H2L1 11.5V10L1.5 8L2.5 7.5Z" stroke="#000A8D"/>
</svg>
