<svg width="11" height="11" viewBox="0 0 11 11" fill="none" xmlns="http://www.w3.org/2000/svg">
<path d="M10 4.83317H6V0.833171C6 0.65636 5.92976 0.48679 5.80474 0.361766C5.67971 0.236742 5.51014 0.166504 5.33333 0.166504C5.15652 0.166504 4.98695 0.236742 4.86193 0.361766C4.7369 0.48679 4.66667 0.65636 4.66667 0.833171V4.83317H0.666667C0.489856 4.83317 0.320287 4.90341 0.195262 5.02843C0.070238 5.15346 0 5.32303 0 5.49984C0 5.67665 0.070238 5.84622 0.195262 5.97124C0.320287 6.09627 0.489856 6.1665 0.666667 6.1665H4.66667V10.1665C4.66667 10.3433 4.7369 10.5129 4.86193 10.6379C4.98695 10.7629 5.15652 10.8332 5.33333 10.8332C5.51014 10.8332 5.67971 10.7629 5.80474 10.6379C5.92976 10.5129 6 10.3433 6 10.1665V6.1665H10C10.1768 6.1665 10.3464 6.09627 10.4714 5.97124C10.5964 5.84622 10.6667 5.67665 10.6667 5.49984C10.6667 5.32303 10.5964 5.15346 10.4714 5.02843C10.3464 4.90341 10.1768 4.83317 10 4.83317Z" fill="#000A8C"/>
</svg>
