<svg width="19" height="19" viewBox="0 0 19 19" fill="none" xmlns="http://www.w3.org/2000/svg">
<g clip-path="url(#clip0_427_3778)">
<path fill-rule="evenodd" clip-rule="evenodd" d="M10.2309 3.23827L14.7547 5.82318C15.0318 5.98146 15.2621 6.21019 15.4222 6.48619C15.5824 6.76219 15.6667 7.07564 15.6667 7.39475V11.6272C15.6667 11.9463 15.5824 12.2598 15.4222 12.5358C15.2621 12.8118 15.0318 13.0405 14.7547 13.1988L10.2309 15.7837C9.9575 15.9398 9.64814 16.022 9.33333 16.022C9.01853 16.022 8.70916 15.9398 8.43581 15.7837L3.912 13.1988C3.63491 13.0405 3.40461 12.8118 3.24444 12.5358C3.08427 12.2598 2.99994 11.9463 3 11.6272V7.39475C2.99994 7.07564 3.08427 6.76219 3.24444 6.48619C3.40461 6.21019 3.63491 5.98146 3.912 5.82318L8.43581 3.23827C8.70916 3.08213 9.01853 3 9.33333 3C9.64814 3 9.9575 3.08213 10.2309 3.23827ZM12.5 8.15384L9.33333 6.34432L6.16667 4.5348" fill="#000A8D"/>
<path d="M12.5 8.15384L9.33333 6.34432L6.16667 4.5348M10.2309 3.23827L14.7547 5.82318C15.0318 5.98146 15.2621 6.21019 15.4222 6.48619C15.5824 6.76219 15.6667 7.07564 15.6667 7.39475V11.6272C15.6667 11.9463 15.5824 12.2598 15.4222 12.5358C15.2621 12.8118 15.0318 13.0405 14.7547 13.1988L10.2309 15.7837C9.9575 15.9398 9.64814 16.022 9.33333 16.022C9.01853 16.022 8.70916 15.9398 8.43581 15.7837L3.912 13.1988C3.63491 13.0405 3.40461 12.8118 3.24444 12.5358C3.08427 12.2598 2.99994 11.9463 3 11.6272V7.39475C2.99994 7.07564 3.08427 6.76219 3.24444 6.48619C3.40461 6.21019 3.63491 5.98146 3.912 5.82318L8.43581 3.23827C8.70916 3.08213 9.01853 3 9.33333 3C9.64814 3 9.9575 3.08213 10.2309 3.23827Z" stroke="white" stroke-width="0.904762" stroke-linecap="round" stroke-linejoin="round"/>
<path fill-rule="evenodd" clip-rule="evenodd" d="M3.61871 7.23828L8.64195 9.94352C8.90557 10.0854 9.20028 10.1597 9.49967 10.1597C9.79905 10.1597 10.0938 10.0854 10.3574 9.94352L15.3806 7.23828M9.49967 10.4049V16.2859V10.4049Z" fill="#000A8D"/>
<path d="M3.61871 7.23828L8.64195 9.94352C8.90557 10.0854 9.20028 10.1597 9.49967 10.1597C9.79905 10.1597 10.0938 10.0854 10.3574 9.94352L15.3806 7.23828M9.49967 10.4049V16.2859" stroke="white" stroke-width="0.904762" stroke-linecap="round" stroke-linejoin="round"/>
<path d="M5.93481 4.10791L12 8" stroke="white" stroke-linecap="round"/>
</g>
<defs>
<clipPath id="clip0_427_3778">
<rect width="19" height="19" fill="white"/>
</clipPath>
</defs>
</svg>
