<svg width="14" height="12" viewBox="0 0 15 11" fill="none" xmlns="http://www.w3.org/2000/svg">
<path d="M9.95443 0C8.64791 0 7.51186 0.589178 6.84367 1.57653C6.17548 0.589178 5.03943 0 3.73291 0C2.74324 0.00115261 1.79442 0.394811 1.09462 1.09462C0.394811 1.79442 0.00115261 2.74324 0 3.73291C0 5.5496 1.13232 7.44032 3.36584 9.35157C4.38932 10.2237 5.49486 10.9946 6.66698 11.6535C6.7213 11.6827 6.78201 11.698 6.84367 11.698C6.90534 11.698 6.96604 11.6827 7.02036 11.6535C8.19248 10.9946 9.29803 10.2237 10.3215 9.35157C12.555 7.44032 13.6873 5.5496 13.6873 3.73291C13.6862 2.74324 13.2925 1.79442 12.5927 1.09462C11.8929 0.394811 10.9441 0.00115261 9.95443 0ZM6.84367 10.8945C5.82272 10.3053 0.746582 7.19954 0.746582 3.73291C0.747406 2.94114 1.0623 2.18203 1.62217 1.62217C2.18203 1.0623 2.94114 0.747406 3.73291 0.746582C4.99464 0.746582 6.05416 1.42037 6.49838 2.50541C6.5265 2.57387 6.57434 2.63243 6.63583 2.67364C6.69731 2.71486 6.76965 2.73686 6.84367 2.73686C6.91769 2.73686 6.99003 2.71486 7.05152 2.67364C7.113 2.63243 7.16084 2.57387 7.18897 2.50541C7.63318 1.42037 8.69271 0.746582 9.95443 0.746582C10.7462 0.747406 11.5053 1.0623 12.0652 1.62217C12.625 2.18203 12.9399 2.94114 12.9408 3.73291C12.9408 7.19954 7.86462 10.3053 6.84367 10.8945Z" fill="#000A8C"/>
<path d="M13 4.2297C13 7.87639 7.73679 10.8781 7.5 11C7.43759 11.0326 6.86784 11.3459 6.79697 11.3459C6.7261 11.3459 6.56241 11.0326 6.5 11C6.26321 10.8781 0.5 7.87642 0.5 4.22973C0.500993 3.3734 0.877363 2.10549 1.50004 1.49997C2.12271 0.894447 3.11941 0.500965 4 0.5C5.10625 0.5 6.39626 1.46238 7.00001 2.24433C7.60376 1.46238 8.39375 0.5 9.5 0.5C10.3806 0.500965 11.8773 0.89448 12.5 1.5C13.1227 2.10552 12.999 3.37336 13 4.2297Z" fill="#000A8C"/>
</svg>
