<svg width="15" height="15" viewBox="0 0 15 15" fill="none" xmlns="http://www.w3.org/2000/svg">
<path d="M13.7474 7.49948H5.23419ZM2.22926 7.49948H1ZM13.7474 12.052H9.78673ZM6.78179 12.052H1ZM13.7474 2.94695H11.6079ZM8.60295 2.94695H1ZM10.1051 4.44907C10.3023 4.44907 10.4977 4.41022 10.6799 4.33473C10.8622 4.25924 11.0277 4.14859 11.1672 4.00911C11.3067 3.86962 11.4174 3.70403 11.4928 3.52178C11.5683 3.33954 11.6072 3.14421 11.6072 2.94695C11.6072 2.74969 11.5683 2.55436 11.4928 2.37211C11.4174 2.18986 11.3067 2.02427 11.1672 1.88479C11.0277 1.7453 10.8622 1.63466 10.6799 1.55917C10.4977 1.48368 10.3023 1.44482 10.1051 1.44482C9.70668 1.44482 9.32461 1.60308 9.04291 1.88479C8.7612 2.16649 8.60295 2.54856 8.60295 2.94695C8.60295 3.34533 8.7612 3.7274 9.04291 4.00911C9.32461 4.29081 9.70668 4.44907 10.1051 4.44907ZM3.73138 9.0016C4.12977 9.0016 4.51184 8.84334 4.79354 8.56164C5.07525 8.27994 5.23351 7.89787 5.23351 7.49948C5.23351 7.10109 5.07525 6.71902 4.79354 6.43732C4.51184 6.15562 4.12977 5.99736 3.73138 5.99736C3.33299 5.99736 2.95092 6.15562 2.66922 6.43732C2.38752 6.71902 2.22926 7.10109 2.22926 7.49948C2.22926 7.89787 2.38752 8.27994 2.66922 8.56164C2.95092 8.84334 3.33299 9.0016 3.73138 9.0016ZM8.28392 13.5548C8.6824 13.5548 9.06455 13.3965 9.34632 13.1148C9.62809 12.833 9.78673 12.4505 9.78673 12.052C9.78673 11.6535 9.62809 11.2717 9.34632 10.99C9.06455 10.7082 8.6824 10.5499 8.28392 10.5499C7.88553 10.5499 7.50346 10.7081 7.22176 10.9899C6.94005 11.2716 6.78179 11.6536 6.78179 12.052C6.78179 12.4504 6.94005 12.8325 7.22176 13.1142C7.50346 13.3959 7.88553 13.5548 8.28392 13.5548Z" fill="#000A8C"/>
<path d="M13.7474 7.49948H5.23419M2.22926 7.49948H1M2.22926 7.49948C2.22926 7.10109 2.38752 6.71902 2.66922 6.43732C2.95092 6.15562 3.33299 5.99736 3.73138 5.99736C4.12977 5.99736 4.51184 6.15562 4.79354 6.43732C5.07525 6.71902 5.23351 7.10109 5.23351 7.49948C5.23351 7.89787 5.07525 8.27994 4.79354 8.56164C4.51184 8.84334 4.12977 9.0016 3.73138 9.0016C3.33299 9.0016 2.95092 8.84334 2.66922 8.56164C2.38752 8.27994 2.22926 7.89787 2.22926 7.49948ZM13.7474 12.052H9.78673M9.78673 12.052C9.78673 12.4505 9.62809 12.833 9.34632 13.1148C9.06455 13.3965 8.6824 13.5548 8.28392 13.5548C7.88553 13.5548 7.50346 13.3959 7.22176 13.1142C6.94005 12.8325 6.78179 12.4504 6.78179 12.052M9.78673 12.052C9.78673 11.6535 9.62809 11.2717 9.34632 10.99C9.06455 10.7082 8.6824 10.5499 8.28392 10.5499C7.88553 10.5499 7.50346 10.7081 7.22176 10.9899C6.94005 11.2716 6.78179 11.6536 6.78179 12.052M6.78179 12.052H1M13.7474 2.94695H11.6079M8.60295 2.94695H1M8.60295 2.94695C8.60295 2.54856 8.7612 2.16649 9.04291 1.88479C9.32461 1.60308 9.70668 1.44482 10.1051 1.44482C10.3023 1.44482 10.4977 1.48368 10.6799 1.55917C10.8622 1.63466 11.0277 1.7453 11.1672 1.88479C11.3067 2.02427 11.4174 2.18986 11.4928 2.37211C11.5683 2.55436 11.6072 2.74969 11.6072 2.94695C11.6072 3.14421 11.5683 3.33954 11.4928 3.52178C11.4174 3.70403 11.3067 3.86962 11.1672 4.00911C11.0277 4.14859 10.8622 4.25924 10.6799 4.33473C10.4977 4.41022 10.3023 4.44907 10.1051 4.44907C9.70668 4.44907 9.32461 4.29081 9.04291 4.00911C8.7612 3.7274 8.60295 3.34533 8.60295 2.94695Z" stroke="#000A8C" stroke-width="1.375" stroke-miterlimit="10" stroke-linecap="round"/>
</svg>
