<svg width="15" height="15" viewBox="0 0 17 18" fill="none" xmlns="http://www.w3.org/2000/svg">
<mask id="path-1-inside-1_427_3793" fill="white">
<path d="M11.8203 3.28906C10.4258 3.28906 9.2132 3.91793 8.5 4.9718C7.7868 3.91793 6.57422 3.28906 5.17969 3.28906C4.12334 3.29029 3.11062 3.71047 2.36367 4.45742C1.61672 5.20437 1.19654 6.21709 1.19531 7.27344C1.19531 9.2125 2.40391 11.2306 4.78789 13.2706C5.88031 14.2014 7.06033 15.0243 8.31141 15.7276C8.36939 15.7588 8.43418 15.7751 8.5 15.7751C8.56582 15.7751 8.63061 15.7588 8.68859 15.7276C9.93967 15.0243 11.1197 14.2014 12.2121 13.2706C14.5961 11.2306 15.8047 9.2125 15.8047 7.27344C15.8035 6.21709 15.3833 5.20437 14.6363 4.45742C13.8894 3.71047 12.8767 3.29029 11.8203 3.28906ZM8.5 14.9175C7.41027 14.2886 1.99219 10.9736 1.99219 7.27344C1.99307 6.42833 2.32917 5.61809 2.92676 5.02051C3.52434 4.42292 4.33458 4.08682 5.17969 4.08594C6.52641 4.08594 7.6573 4.80512 8.13144 5.96324C8.16146 6.03632 8.21253 6.09882 8.27815 6.14281C8.34378 6.1868 8.421 6.21029 8.5 6.21029C8.579 6.21029 8.65622 6.1868 8.72185 6.14281C8.78747 6.09882 8.83854 6.03632 8.86856 5.96324C9.3427 4.80512 10.4736 4.08594 11.8203 4.08594C12.6654 4.08682 13.4757 4.42292 14.0732 5.02051C14.6708 5.61809 15.0069 6.42833 15.0078 7.27344C15.0078 10.9736 9.58973 14.2886 8.5 14.9175Z"/>
</mask>
<path d="M11.8203 3.28906C10.4258 3.28906 9.2132 3.91793 8.5 4.9718C7.7868 3.91793 6.57422 3.28906 5.17969 3.28906C4.12334 3.29029 3.11062 3.71047 2.36367 4.45742C1.61672 5.20437 1.19654 6.21709 1.19531 7.27344C1.19531 9.2125 2.40391 11.2306 4.78789 13.2706C5.88031 14.2014 7.06033 15.0243 8.31141 15.7276C8.36939 15.7588 8.43418 15.7751 8.5 15.7751C8.56582 15.7751 8.63061 15.7588 8.68859 15.7276C9.93967 15.0243 11.1197 14.2014 12.2121 13.2706C14.5961 11.2306 15.8047 9.2125 15.8047 7.27344C15.8035 6.21709 15.3833 5.20437 14.6363 4.45742C13.8894 3.71047 12.8767 3.29029 11.8203 3.28906ZM8.5 14.9175C7.41027 14.2886 1.99219 10.9736 1.99219 7.27344C1.99307 6.42833 2.32917 5.61809 2.92676 5.02051C3.52434 4.42292 4.33458 4.08682 5.17969 4.08594C6.52641 4.08594 7.6573 4.80512 8.13144 5.96324C8.16146 6.03632 8.21253 6.09882 8.27815 6.14281C8.34378 6.1868 8.421 6.21029 8.5 6.21029C8.579 6.21029 8.65622 6.1868 8.72185 6.14281C8.78747 6.09882 8.83854 6.03632 8.86856 5.96324C9.3427 4.80512 10.4736 4.08594 11.8203 4.08594C12.6654 4.08682 13.4757 4.42292 14.0732 5.02051C14.6708 5.61809 15.0069 6.42833 15.0078 7.27344C15.0078 10.9736 9.58973 14.2886 8.5 14.9175Z" fill="#000A8C"/>
<path d="M11.8203 3.28906L11.9601 -116.711L11.8902 -116.711H11.8203V3.28906ZM8.5 4.9718L-90.8812 72.2279L8.5 219.079L107.881 72.2279L8.5 4.9718ZM5.17969 3.28906V-116.711H5.10981L5.03993 -116.711L5.17969 3.28906ZM1.19531 7.27344L-118.805 7.13368L-118.805 7.20356V7.27344H1.19531ZM4.78789 13.2706L-73.2318 104.446L-73.1366 104.527L-73.0413 104.609L4.78789 13.2706ZM8.31141 15.7276L-50.4941 120.331L-49.4966 120.892L-48.4886 121.434L8.31141 15.7276ZM8.68859 15.7276L65.4886 121.434L66.4966 120.892L67.4941 120.331L8.68859 15.7276ZM12.2121 13.2706L90.0413 104.609L90.1366 104.527L90.2318 104.446L12.2121 13.2706ZM15.8047 7.27344H135.805V7.20356L135.805 7.13368L15.8047 7.27344ZM8.5 14.9175L-51.4795 118.852L8.5 153.466L68.4795 118.852L8.5 14.9175ZM1.99219 7.27344L-118.008 7.14863L-118.008 7.21104V7.27344H1.99219ZM5.17969 4.08594V-115.914H5.11729L5.05488 -115.914L5.17969 4.08594ZM8.13144 5.96324L-102.922 51.4289L-102.895 51.4941L-102.869 51.5593L8.13144 5.96324ZM8.86856 5.96324L119.869 51.5593L119.895 51.4941L119.922 51.4289L8.86856 5.96324ZM11.8203 4.08594L11.9451 -115.914L11.8827 -115.914H11.8203V4.08594ZM15.0078 7.27344H135.008V7.21104L135.008 7.14863L15.0078 7.27344ZM11.8203 -116.711C-26.3965 -116.711 -66.2131 -98.7351 -90.8812 -62.2843L107.881 72.2279C84.6395 106.571 47.2481 123.289 11.8203 123.289V-116.711ZM107.881 -62.2843C83.2131 -98.7351 43.3965 -116.711 5.17969 -116.711V123.289C-30.2481 123.289 -67.6395 106.571 -90.8812 72.2279L107.881 -62.2843ZM5.03993 -116.711C-27.7939 -116.673 -59.2721 -103.612 -82.4891 -80.3954L87.2165 89.3102C65.4933 111.033 36.0406 123.253 5.31944 123.289L5.03993 -116.711ZM-82.4891 -80.3954C-105.706 -57.1783 -118.766 -25.7002 -118.805 7.13368L121.195 7.41319C121.159 38.1344 108.94 67.5871 87.2165 89.3102L-82.4891 -80.3954ZM-118.805 7.27344C-118.805 61.0614 -86.1076 93.4279 -73.2318 104.446L82.8075 -77.9047C90.9154 -70.9667 121.195 -42.6364 121.195 7.27344H-118.805ZM-73.0413 104.609C-66.0508 110.565 -58.4998 115.831 -50.4941 120.331L67.117 -88.876C72.6205 -85.782 77.8114 -82.1623 82.617 -78.0674L-73.0413 104.609ZM-48.4886 121.434C-30.9697 130.847 -11.3905 135.775 8.5 135.775V-104.225C28.2588 -104.225 47.7085 -99.3297 65.1114 -89.9784L-48.4886 121.434ZM8.5 135.775C28.3905 135.775 47.9697 130.847 65.4886 121.434L-48.1114 -89.9784C-30.7085 -99.3297 -11.2588 -104.225 8.5 -104.225V135.775ZM67.4941 120.331C75.4998 115.831 83.0508 110.565 90.0413 104.609L-65.617 -78.0674C-60.8114 -82.1622 -55.6205 -85.782 -50.117 -88.876L67.4941 120.331ZM90.2318 104.446C103.108 93.4279 135.805 61.0614 135.805 7.27344H-104.195C-104.195 -42.6364 -73.9154 -70.9667 -65.8075 -77.9047L90.2318 104.446ZM135.805 7.13368C135.766 -25.7002 122.706 -57.1783 99.4891 -80.3954L-70.2165 89.3102C-91.9397 67.587 -104.159 38.1344 -104.195 7.41319L135.805 7.13368ZM99.4891 -80.3954C76.2721 -103.612 44.7939 -116.673 11.9601 -116.711L11.6806 123.289C-19.0406 123.253 -48.4933 111.033 -70.2165 89.3102L99.4891 -80.3954ZM68.4795 -89.0174C71.0747 -87.5198 78.1051 -83.3968 86.0328 -76.1118C90.0812 -72.3917 97.5595 -64.9625 104.649 -53.6059C111.647 -42.3959 121.992 -21.3054 121.992 7.27344H-118.008C-118.008 63.698 -81.037 96.3065 -76.3579 100.606C-65.4487 110.631 -55.1644 116.726 -51.4795 118.852L68.4795 -89.0174ZM121.992 7.39824C121.96 38.3359 109.656 67.9971 87.7796 89.8733L-81.9261 -79.8323C-104.997 -56.7609 -117.974 -25.4792 -118.008 7.14863L121.992 7.39824ZM87.7796 89.8733C65.9034 111.75 36.2421 124.054 5.30449 124.086L5.05488 -115.914C-27.5729 -115.88 -58.8547 -102.904 -81.9261 -79.8323L87.7796 89.8733ZM5.17969 124.086C-37.3522 124.086 -83.1725 99.6686 -102.922 51.4289L119.185 -39.5024C98.4871 -90.0583 50.405 -115.914 5.17969 -115.914V124.086ZM-102.869 51.5593C-93.7975 73.6421 -78.3664 92.5292 -58.5368 105.821L75.0931 -93.5355C94.7915 -80.3316 110.12 -61.5695 119.131 -39.6328L-102.869 51.5593ZM-58.5368 105.821C-38.7068 119.113 -15.3729 126.21 8.5 126.21V-113.79C32.2149 -113.79 55.3944 -106.74 75.0931 -93.5355L-58.5368 105.821ZM8.5 126.21C32.3729 126.21 55.7068 119.113 75.5368 105.821L-58.0931 -93.5355C-38.3944 -106.74 -15.2149 -113.79 8.5 -113.79V126.21ZM75.5368 105.821C95.3664 92.5292 110.797 73.6421 119.869 51.5593L-102.131 -39.6328C-93.1204 -61.5695 -77.7915 -80.3316 -58.0931 -93.5355L75.5368 105.821ZM119.922 51.4289C100.173 99.6686 54.3522 124.086 11.8203 124.086V-115.914C-33.405 -115.914 -81.4871 -90.0583 -102.185 -39.5024L119.922 51.4289ZM11.6955 124.086C-19.2421 124.054 -48.9034 111.75 -70.7796 89.8733L98.9261 -79.8323C75.8547 -102.904 44.5729 -115.88 11.9451 -115.914L11.6955 124.086ZM-70.7796 89.8733C-92.6558 67.9971 -104.96 38.3358 -104.992 7.39824L135.008 7.14863C134.974 -25.4792 121.997 -56.7609 98.9261 -79.8323L-70.7796 89.8733ZM-104.992 7.27344C-104.992 -21.3054 -94.6471 -42.3959 -87.6491 -53.6059C-80.5595 -64.9625 -73.0812 -72.3917 -69.0328 -76.1118C-61.1051 -83.3968 -54.0747 -87.5198 -51.4795 -89.0174L68.4795 118.852C72.1644 116.726 82.4487 110.631 93.3579 100.606C98.037 96.3065 135.008 63.698 135.008 7.27344H-104.992Z" fill="#000A8C" mask="url(#path-1-inside-1_427_3793)"/>
<g clip-path="url(#clip0_427_3793)">
<path d="M15 7.55292C15 11.5643 8.97647 14.8112 8.71995 14.9453C8.65235 14.9812 8.57677 15 8.5 15C8.42323 15 8.34765 14.9812 8.28004 14.9453C8.02353 14.8112 2 11.5643 2 7.55292C2.00108 6.61095 2.38052 5.70787 3.05508 5.0418C3.72964 4.37573 4.64424 4.00106 5.59821 4C6.79665 4 7.84594 4.50887 8.5 5.36902C9.15406 4.50887 10.2033 4 11.4018 4C12.3558 4.00106 13.2704 4.37573 13.9449 5.0418C14.6195 5.70787 14.9989 6.61095 15 7.55292Z" fill="#000A8D"/>
<ellipse cx="5.5" cy="7" rx="3.5" ry="3" fill="#000A8D"/>
<ellipse cx="12.5" cy="7" rx="3.5" ry="3" fill="#000A8D"/>
</g>
<defs>
<clipPath id="clip0_427_3793">
<rect width="14" height="14" fill="white" transform="translate(1 2)"/>
</clipPath>
</defs>
</svg>
