<svg width="12" height="13" viewBox="0 0 12 13" fill="none" xmlns="http://www.w3.org/2000/svg">
<path d="M11.3688 5.48963L10.6154 5.23659V2.32144C10.6154 2.07517 10.5181 1.83898 10.345 1.66484C10.1719 1.4907 9.93712 1.39286 9.69231 1.39286H6.46154V0.464288C6.46154 0.341151 6.41291 0.223058 6.32636 0.135987C6.2398 0.0489159 6.12241 0 6 0C5.87759 0 5.7602 0.0489159 5.67364 0.135987C5.58709 0.223058 5.53846 0.341151 5.53846 0.464288V1.39286H2.30769C2.06288 1.39286 1.82809 1.4907 1.65498 1.66484C1.48187 1.83898 1.38462 2.07517 1.38462 2.32144V5.23659L0.631154 5.48963C0.447352 5.55126 0.287489 5.66952 0.174212 5.82763C0.0609342 5.98575 -1.43565e-05 6.17571 2.53657e-09 6.37061V7.8929C2.53657e-09 11.4644 5.6475 12.9258 5.88808 12.9861C5.96156 13.0046 6.03844 13.0046 6.11192 12.9861C6.3525 12.9258 12 11.4644 12 7.8929V6.37061C12 6.17571 11.9391 5.98575 11.8258 5.82763C11.7125 5.66952 11.5526 5.55126 11.3688 5.48963ZM2.30769 2.32144H9.69231V4.92726L6.14596 3.7381C6.05122 3.70633 5.94878 3.70633 5.85404 3.7381L2.30769 4.92726V2.32144ZM11.0769 7.8929C11.0769 9.33858 9.71077 10.3884 8.56442 11.017C7.74824 11.4527 6.88869 11.8007 6 12.0552C5.11671 11.8033 4.2622 11.4586 3.45058 11.0268C1.36154 9.88644 0.923077 8.69322 0.923077 7.8929V6.37061L5.53846 4.82279V8.82148C5.53846 8.94461 5.58709 9.06271 5.67364 9.14978C5.7602 9.23685 5.87759 9.28576 6 9.28576C6.12241 9.28576 6.2398 9.23685 6.32636 9.14978C6.41291 9.06271 6.46154 8.94461 6.46154 8.82148V4.82279L11.0769 6.37061V7.8929Z" fill="#000A8C"/>
</svg>
