<svg width="17" height="18" viewBox="0 0 17 18" fill="none" xmlns="http://www.w3.org/2000/svg">
<path d="M12.6382 7.37841L5.0708 3.05419M9.9269 1.50504L15.3322 4.59361C15.6633 4.78273 15.9384 5.05604 16.1298 5.38582C16.3212 5.71559 16.4219 6.09012 16.4219 6.4714V11.5286C16.4219 11.9099 16.3212 12.2844 16.1298 12.6142C15.9384 12.9439 15.6633 13.2173 15.3322 13.4064L9.9269 16.4949C9.60028 16.6815 9.23064 16.7796 8.85449 16.7796C8.47834 16.7796 8.1087 16.6815 7.78209 16.4949L2.37681 13.4064C2.04573 13.2173 1.77055 12.9439 1.57918 12.6142C1.3878 12.2844 1.28704 11.9099 1.28711 11.5286V6.4714C1.28704 6.09012 1.3878 5.71559 1.57918 5.38582C1.77055 5.05604 2.04573 4.78273 2.37681 4.59361L7.78209 1.50504C8.1087 1.31847 8.47834 1.22034 8.85449 1.22034C9.23064 1.22034 9.60028 1.31847 9.9269 1.50504Z" stroke="black" stroke-width="1.08105" stroke-linecap="round" stroke-linejoin="round"/>
<path d="M1.83105 5.75684L7.83307 8.98919C8.14805 9.15875 8.50019 9.24751 8.85791 9.24751C9.21563 9.24751 9.56777 9.15875 9.88275 8.98919L15.8848 5.75684M8.85791 9.54053V16.5674" stroke="black" stroke-width="1.08105" stroke-linecap="round" stroke-linejoin="round"/>
</svg>
