<svg width="14" height="15" viewBox="0 0 14 15" fill="none" xmlns="http://www.w3.org/2000/svg">
<path d="M10.332 6.59522L3.9987 2.97617M8.06289 1.67965L12.5867 4.26455C12.8638 4.42283 13.0941 4.65157 13.2543 4.92757C13.4144 5.20357 13.4988 5.51702 13.4987 5.83613V10.0686C13.4988 10.3877 13.4144 10.7012 13.2543 10.9772C13.0941 11.2532 12.8638 11.4819 12.5867 11.6402L8.06289 14.2251C7.78953 14.3812 7.48017 14.4634 7.16536 14.4634C6.85056 14.4634 6.5412 14.3812 6.26784 14.2251L1.74403 11.6402C1.46694 11.4819 1.23664 11.2532 1.07647 10.9772C0.916305 10.7012 0.831975 10.3877 0.832031 10.0686V5.83613C0.831975 5.51702 0.916305 5.20357 1.07647 4.92757C1.23664 4.65157 1.46694 4.42283 1.74403 4.26455L6.26784 1.67965C6.5412 1.5235 6.85056 1.44138 7.16536 1.44138C7.48017 1.44138 7.78953 1.5235 8.06289 1.67965Z" stroke="#000B8C" stroke-width="0.904762" stroke-linecap="round" stroke-linejoin="round"/>
<path d="M1.28516 5.23807L6.30839 7.94331C6.57201 8.08522 6.86672 8.1595 7.16611 8.1595C7.4655 8.1595 7.76021 8.08522 8.02382 7.94331L13.0471 5.23807M7.16611 8.40473V14.2857" stroke="#000B8C" stroke-width="0.904762" stroke-linecap="round" stroke-linejoin="round"/>
</svg>
