<svg width="12" height="11" viewBox="0 0 12 11" fill="none" xmlns="http://www.w3.org/2000/svg">
<path d="M9.67631 9.57064H1.85863V10.1347C1.85863 10.2843 1.7998 10.4278 1.69508 10.5335C1.59035 10.6393 1.44832 10.6987 1.30022 10.6987H0.741817C0.593718 10.6987 0.451685 10.6393 0.346964 10.5335C0.242243 10.4278 0.183411 10.2843 0.183411 10.1347V4.49423L1.56826 1.22952C1.65443 1.02647 1.79774 0.853438 1.98039 0.73191C2.16305 0.610381 2.37701 0.545702 2.59573 0.545899H8.93922C9.15775 0.545923 9.37147 0.610706 9.5539 0.732221C9.73634 0.853736 9.87947 1.02664 9.96557 1.22952L11.3515 4.49423V10.1347C11.3515 10.2843 11.2927 10.4278 11.188 10.5335C11.0833 10.6393 10.9412 10.6987 10.7931 10.6987H10.2347C10.0866 10.6987 9.94459 10.6393 9.83987 10.5335C9.73515 10.4278 9.67631 10.2843 9.67631 10.1347V9.57064ZM10.2347 5.62232H1.30022V8.44255H10.2347V5.62232ZM1.3985 4.49423H10.1364L8.93978 1.67399H2.59573L1.3985 4.49423ZM2.69624 7.87851C2.47409 7.87851 2.26104 7.78936 2.10396 7.6307C1.94688 7.47203 1.85863 7.25683 1.85863 7.03243C1.85863 6.80804 1.94688 6.59284 2.10396 6.43417C2.26104 6.2755 2.47409 6.18637 2.69624 6.18637C2.91839 6.18637 3.13144 6.2755 3.28852 6.43417C3.4456 6.59284 3.53385 6.80804 3.53385 7.03243C3.53385 7.25683 3.4456 7.47203 3.28852 7.6307C3.13144 7.78936 2.91839 7.87851 2.69624 7.87851ZM8.83871 7.87851C8.61656 7.87851 8.40351 7.78936 8.24643 7.6307C8.08934 7.47203 8.0011 7.25683 8.0011 7.03243C8.0011 6.80804 8.08934 6.59284 8.24643 6.43417C8.40351 6.2755 8.61656 6.18637 8.83871 6.18637C9.06085 6.18637 9.2739 6.2755 9.43098 6.43417C9.58807 6.59284 9.67631 6.80804 9.67631 7.03243C9.67631 7.25683 9.58807 7.47203 9.43098 7.6307C9.2739 7.78936 9.06085 7.87851 8.83871 7.87851Z" fill="#000a8c"/>
</svg>
