<svg width="16" height="15" viewBox="0 0 16 15" fill="none" xmlns="http://www.w3.org/2000/svg">
<path d="M12.1526 11.176H12.9818C13.2577 11.176 13.3957 11.176 13.5047 11.131C13.6495 11.0708 13.7646 10.9555 13.8245 10.8106C13.8701 10.7016 13.8701 10.5636 13.8701 10.2876M12.1526 11.176V7.26479C12.1526 6.03765 11.94 5.40691 11.1328 4.49011C10.0478 3.25705 9.35186 2.88452 7.69297 2.88452H4.52562C3.34705 2.88452 2.75776 2.88452 2.39116 3.28903C2.02515 3.69413 2.02515 4.3456 2.02515 5.64855V8.41198C2.02515 9.71493 2.02515 10.3664 2.39116 10.7715C2.75776 11.176 3.34705 11.176 4.52562 11.176H4.98639M12.1526 11.176H7.35539" stroke="#000a8c" stroke-width="0.812227" stroke-linecap="round" stroke-linejoin="round"/>
<path d="M6.17095 12.3605C6.82513 12.3605 7.35545 11.8301 7.35545 11.176C7.35545 10.5218 6.82513 9.99146 6.17095 9.99146C5.51677 9.99146 4.98645 10.5218 4.98645 11.176C4.98645 11.8301 5.51677 12.3605 6.17095 12.3605Z" stroke="#000a8c" stroke-width="0.812227" stroke-linecap="round" stroke-linejoin="round"/>
<path d="M3.80188 6.14176C3.80188 5.44349 3.80188 5.09466 4.00443 4.8779C4.20639 4.66113 4.53212 4.66113 5.1836 4.66113H6.56591C7.21738 4.66113 7.54312 4.66113 7.74507 4.8779C7.94703 5.09466 7.94762 5.44349 7.94762 6.14176C7.94762 6.84002 7.94762 7.18885 7.74507 7.40561C7.54312 7.62238 7.21738 7.62238 6.56591 7.62238H5.1836C4.53212 7.62238 4.20639 7.62238 4.00443 7.40561C3.80247 7.18885 3.80188 6.83942 3.80188 6.14176Z" stroke="#000a8c" stroke-width="0.812227" stroke-linecap="round" stroke-linejoin="round"/>
</svg>
