<svg width="28" height="27" viewBox="0 0 28 27" fill="none" xmlns="http://www.w3.org/2000/svg">
<path d="M16.8517 3.96271C16.8225 4.06356 16.815 4.16874 16.8298 4.27224C16.8445 4.37575 16.8812 4.47555 16.9377 4.56596C16.9941 4.65637 17.0693 4.7356 17.1589 4.79914C17.2485 4.86269 17.3507 4.90929 17.4598 4.93629C17.5688 4.9633 17.6826 4.97017 17.7945 4.95653C17.9064 4.94288 18.0144 4.90899 18.1121 4.85677C18.2099 4.80456 18.2956 4.73504 18.3643 4.65221C18.433 4.56937 18.4834 4.47483 18.5126 4.37398L19.2543 1.81414C19.2835 1.71322 19.2909 1.60797 19.2761 1.5044C19.2613 1.40083 19.2246 1.30097 19.1681 1.21051C19.1116 1.12006 19.0363 1.04078 18.9467 0.977215C18.857 0.913647 18.7547 0.86703 18.6456 0.840025C18.5364 0.813021 18.4226 0.806158 18.3106 0.819829C18.1986 0.8335 18.0906 0.867437 17.9928 0.919702C17.7953 1.02526 17.6511 1.19906 17.5922 1.40287L16.8517 3.96271ZM25.1667 2.64198C25.3277 2.79104 25.4182 2.9931 25.4182 3.20377C25.4182 3.41444 25.3277 3.61649 25.1667 3.76555L22.301 6.41549C22.2218 6.49145 22.1269 6.55205 22.0221 6.59376C21.9172 6.63547 21.8044 6.65745 21.6903 6.65842C21.5761 6.65938 21.4629 6.63932 21.3572 6.59939C21.2516 6.55947 21.1555 6.50048 21.0748 6.42587C20.994 6.35126 20.9301 6.26253 20.8869 6.16485C20.8436 6.06717 20.8218 5.9625 20.8227 5.85694C20.8237 5.75138 20.8473 5.64706 20.8923 5.55005C20.9373 5.45303 21.0028 5.36528 21.0849 5.29191L23.9505 2.64198C24.1117 2.49311 24.3302 2.40949 24.5581 2.40949C24.7859 2.40949 25.0044 2.49311 25.1656 2.64198M8.43 24.3545C9.13579 25.4421 10.2595 26.2434 11.5766 26.598C12.8936 26.9526 14.3068 26.8345 15.5337 26.2672C16.7606 25.6999 17.7108 24.7253 18.1942 23.5383C18.6776 22.3512 18.6587 21.0392 18.1412 19.8644L22.528 17.8367C22.9747 17.6302 23.362 17.3284 23.6579 16.9563C23.9538 16.5843 24.1498 16.1525 24.2298 15.6966C24.3099 15.2407 24.2716 14.7738 24.1182 14.3343C23.9649 13.8947 23.7007 13.4952 23.3476 13.1686L13.7842 4.3231C13.431 3.99656 12.999 3.75231 12.5237 3.61047C12.0483 3.46863 11.5434 3.43325 11.0504 3.50727C10.5574 3.58128 10.0905 3.76256 9.68809 4.03617C9.28571 4.30978 8.9594 4.66788 8.73605 5.08098L0.534466 20.2481C0.238815 20.7954 0.136845 21.4148 0.243 22.0186C0.349154 22.6224 0.658051 23.18 1.12594 23.6125L2.49001 24.8739C2.95782 25.3064 3.56091 25.5918 4.21387 25.6898C4.86684 25.7877 5.53659 25.6933 6.12828 25.4198L8.43 24.3545ZM9.97632 23.6401L16.596 20.5789C16.9093 21.3735 16.8955 22.2469 16.5573 23.0327C16.2191 23.8185 15.5801 24.4618 14.762 24.84C13.944 25.2182 13.004 25.305 12.1213 25.0837C11.2385 24.8624 10.4758 24.3486 9.97632 23.6401ZM10.2709 5.79222C10.3724 5.60442 10.5208 5.44161 10.7037 5.31722C10.8866 5.19282 11.0988 5.11041 11.323 5.07677C11.5471 5.04312 11.7766 5.05921 11.9927 5.12371C12.2088 5.18821 12.4052 5.29926 12.5658 5.44773L22.1303 14.2922C22.2908 14.4406 22.4109 14.6222 22.4807 14.822C22.5504 15.0218 22.5678 15.2341 22.5314 15.4414C22.495 15.6486 22.4059 15.8449 22.2714 16.014C22.1369 16.1832 21.9608 16.3203 21.7577 16.4142L5.35913 23.9983C5.09015 24.1227 4.78566 24.1657 4.4888 24.1212C4.19193 24.0767 3.91773 23.9469 3.70506 23.7503L2.34099 22.4889C2.12835 22.2923 1.98802 22.0387 1.93988 21.7642C1.89174 21.4897 1.93823 21.2081 2.07276 20.9594L10.2709 5.79222ZM22.5532 9.56573C22.5532 9.35489 22.6438 9.15268 22.805 9.00359C22.9663 8.8545 23.1849 8.77075 23.4129 8.77075H26.2786C26.5066 8.77075 26.7253 8.8545 26.8865 9.00359C27.0477 9.15268 27.1383 9.35489 27.1383 9.56573C27.1383 9.77657 27.0477 9.97878 26.8865 10.1279C26.7253 10.277 26.5066 10.3607 26.2786 10.3607H23.4129C23.1849 10.3607 22.9663 10.277 22.805 10.1279C22.6438 9.97878 22.5532 9.77657 22.5532 9.56573Z" fill="black"/>
</svg>
