<svg width="162" height="162" viewBox="0 0 162 162" fill="none" xmlns="http://www.w3.org/2000/svg">
<g clip-path="url(#clip0_201_2237)">
<path d="M81 9C66.7598 9 52.8393 13.2227 40.999 21.1342C29.1586 29.0456 19.9302 40.2905 14.4807 53.4468C9.0312 66.6031 7.60536 81.0799 10.3835 95.0465C13.1616 109.013 20.019 121.842 30.0883 131.912C40.1577 141.981 52.9869 148.838 66.9535 151.617C80.9202 154.395 95.397 152.969 108.553 147.519C121.71 142.07 132.954 132.841 140.866 121.001C148.777 109.161 153 95.2403 153 81C153 61.9044 145.414 43.5909 131.912 30.0883C118.409 16.5857 100.096 9 81 9ZM81 144C68.5398 144 56.3594 140.305 45.9991 133.383C35.6388 126.46 27.5639 116.621 22.7956 105.109C18.0273 93.5973 16.7797 80.9301 19.2106 68.7093C21.6414 56.4885 27.6416 45.263 36.4523 36.4523C45.263 27.6416 56.4885 21.6414 68.7093 19.2105C80.9301 16.7797 93.5974 18.0273 105.109 22.7956C116.621 27.5639 126.46 35.6388 133.383 45.9991C140.305 56.3594 144 68.5398 144 81C144 97.7086 137.363 113.733 125.548 125.548C113.733 137.363 97.7087 144 81 144Z" fill="#000A8D"/>
<path d="M126 54.4499C125.157 53.6118 124.016 53.1414 122.827 53.1414C121.639 53.1414 120.498 53.6118 119.655 54.4499L69.705 104.175L42.705 77.1749C41.8815 76.2858 40.7385 75.7602 39.5275 75.7138C38.3164 75.6674 37.1366 76.1039 36.2475 76.9274C35.3583 77.7509 34.8327 78.8939 34.7863 80.1049C34.7399 81.3159 35.1765 82.4958 36 83.3849L69.705 117L126 60.8399C126.422 60.4216 126.757 59.9239 126.985 59.3755C127.213 58.8272 127.331 58.239 127.331 57.6449C127.331 57.0509 127.213 56.4627 126.985 55.9143C126.757 55.366 126.422 54.8683 126 54.4499Z" fill="#000A8D"/>
</g>
<defs>
<clipPath id="clip0_201_2237">
<rect width="162" height="162" fill="white"/>
</clipPath>
</defs>
</svg>
