<svg width="36" height="34" viewBox="0 0 36 34" fill="none" xmlns="http://www.w3.org/2000/svg">
<path d="M17.9502 1.5282V22.8212" stroke="#A3A3A3" stroke-width="1.49102" stroke-miterlimit="10" stroke-linecap="round"/>
<path d="M26.1391 9.04274L19.1188 2.02061C18.8081 1.71331 18.3889 1.54095 17.9519 1.54095C17.515 1.54095 17.0957 1.71331 16.7851 2.02061L9.76122 9.04274M1.57227 20.3639V28.5528C1.57203 29.0907 1.6778 29.6233 1.88353 30.1203C2.08926 30.6173 2.39091 31.0688 2.77125 31.4492C3.15159 31.8295 3.60315 32.1312 4.10012 32.3369C4.5971 32.5426 5.12975 32.6484 5.66763 32.6482H30.2345C30.7722 32.6482 31.3047 32.5422 31.8014 32.3364C32.2982 32.1306 32.7496 31.8289 33.1297 31.4486C33.5099 31.0682 33.8114 30.6168 34.017 30.1199C34.2226 29.623 34.3283 29.0905 34.3281 28.5528V20.3639" stroke="#A3A3A3" stroke-width="1.49102" stroke-linecap="round" stroke-linejoin="round"/>
</svg>
