<svg width="24" height="24" viewBox="0 0 24 24" fill="none" xmlns="http://www.w3.org/2000/svg">
<rect width="24" height="24" rx="12" fill="#EFEFEF"/>
<path d="M8.7041 15.8264L11.6875 15.8163L18.1993 9.36669C18.4549 9.11114 18.5955 8.77175 18.5955 8.41074C18.5955 8.04972 18.4549 7.71034 18.1993 7.45479L17.1271 6.38256C16.616 5.87146 15.7243 5.87417 15.2172 6.38054L8.7041 12.8315V15.8264ZM16.1712 7.33851L17.2454 8.40871L16.1658 9.47824L15.0935 8.40668L16.1712 7.33851ZM10.0562 13.3953L14.1328 9.35722L15.2051 10.4294L11.1291 14.4662L10.0562 14.4696V13.3953Z" fill="#000A8D"/>
<path d="M7.35212 18.5218H16.8169C17.5626 18.5218 18.169 17.9154 18.169 17.1697V11.3096L16.8169 12.6618V17.1697H9.48711C9.46953 17.1697 9.45128 17.1765 9.4337 17.1765C9.41139 17.1765 9.38908 17.1704 9.36609 17.1697H7.35212V7.7049H11.9811L13.3332 6.35278H7.35212C6.60642 6.35278 6 6.95921 6 7.7049V17.1697C6 17.9154 6.60642 18.5218 7.35212 18.5218Z" fill="#000A8D"/>
</svg>
