<svg width="13" height="13" viewBox="0 0 13 13" fill="none" xmlns="http://www.w3.org/2000/svg">
<path d="M2.7041 9.82642L5.68755 9.81628L12.1993 3.36669C12.4549 3.11114 12.5955 2.77175 12.5955 2.41074C12.5955 2.04972 12.4549 1.71034 12.1993 1.45479L11.1271 0.382565C10.616 -0.128536 9.72429 -0.125831 9.21725 0.380536L2.7041 6.83148V9.82642ZM10.1712 1.33851L11.2454 2.40871L10.1658 3.47824L9.09353 2.40668L10.1712 1.33851ZM4.05622 7.39532L8.13285 3.35722L9.20508 4.42945L5.12912 8.46619L4.05622 8.46957V7.39532Z" fill="#000A8D"/>
<path d="M1.35212 12.5218H10.8169C11.5626 12.5218 12.169 11.9154 12.169 11.1697V5.30964L10.8169 6.66176V11.1697H3.48711C3.46953 11.1697 3.45128 11.1765 3.4337 11.1765C3.41139 11.1765 3.38908 11.1704 3.36609 11.1697H1.35212V1.7049H5.98109L7.3332 0.352783H1.35212C0.606424 0.352783 0 0.959207 0 1.7049V11.1697C0 11.9154 0.606424 12.5218 1.35212 12.5218Z" fill="#000A8D"/>
</svg>
