<svg width="15" height="15" viewBox="0 0 15 15" fill="none" xmlns="http://www.w3.org/2000/svg">
<path d="M13.7474 7.49966H5.23419M2.22926 7.49966H1M2.22926 7.49966C2.22926 7.10127 2.38752 6.7192 2.66922 6.4375C2.95092 6.1558 3.33299 5.99754 3.73138 5.99754C4.12977 5.99754 4.51184 6.1558 4.79354 6.4375C5.07525 6.7192 5.23351 7.10127 5.23351 7.49966C5.23351 7.89805 5.07525 8.28012 4.79354 8.56182C4.51184 8.84353 4.12977 9.00178 3.73138 9.00178C3.33299 9.00178 2.95092 8.84353 2.66922 8.56182C2.38752 8.28012 2.22926 7.89805 2.22926 7.49966ZM13.7474 12.0522H9.78673M9.78673 12.0522C9.78673 12.4507 9.62809 12.8332 9.34632 13.1149C9.06455 13.3967 8.6824 13.555 8.28392 13.555C7.88553 13.555 7.50346 13.3961 7.22176 13.1144C6.94005 12.8327 6.78179 12.4506 6.78179 12.0522M9.78673 12.0522C9.78673 11.6537 9.62809 11.2719 9.34632 10.9901C9.06455 10.7084 8.6824 10.5501 8.28392 10.5501C7.88553 10.5501 7.50346 10.7083 7.22176 10.99C6.94005 11.2717 6.78179 11.6538 6.78179 12.0522M6.78179 12.0522H1M13.7474 2.94713H11.6079M8.60295 2.94713H1M8.60295 2.94713C8.60295 2.54874 8.7612 2.16667 9.04291 1.88497C9.32461 1.60327 9.70668 1.44501 10.1051 1.44501C10.3023 1.44501 10.4977 1.48386 10.6799 1.55935C10.8622 1.63484 11.0277 1.74548 11.1672 1.88497C11.3067 2.02445 11.4174 2.19005 11.4928 2.37229C11.5683 2.55454 11.6072 2.74987 11.6072 2.94713C11.6072 3.14439 11.5683 3.33972 11.4928 3.52197C11.4174 3.70421 11.3067 3.86981 11.1672 4.00929C11.0277 4.14878 10.8622 4.25942 10.6799 4.33491C10.4977 4.4104 10.3023 4.44925 10.1051 4.44925C9.70668 4.44925 9.32461 4.29099 9.04291 4.00929C8.7612 3.72759 8.60295 3.34552 8.60295 2.94713Z" stroke="#000A8D" stroke-width="1.375" stroke-miterlimit="10" stroke-linecap="round"/>
</svg>
