<svg width="16" height="15" viewBox="0 0 16 15" fill="none" xmlns="http://www.w3.org/2000/svg">
<path d="M3.62708 4.57642V12.9525C3.62722 13.1129 3.67713 13.2692 3.76969 13.399C3.86225 13.5289 3.99273 13.6256 4.14251 13.6755C4.29229 13.7254 4.45373 13.7259 4.60379 13.6768C4.75385 13.6278 4.88487 13.5318 4.97815 13.4025L7.74165 9.52592V9.56781M10.36 11.8103C10.36 12.3152 10.5571 12.7994 10.9078 13.1564C11.2585 13.5134 11.7342 13.714 12.2303 13.714C12.7263 13.714 13.202 13.5134 13.5527 13.1564C13.9035 12.7994 14.1005 12.3152 14.1005 11.8103C14.1005 11.3054 13.9035 10.8212 13.5527 10.4642C13.202 10.1072 12.7263 9.90666 12.2303 9.90666C11.7342 9.90666 11.2585 10.1072 10.9078 10.4642C10.5571 10.8212 10.36 11.3054 10.36 11.8103Z" stroke="#000a8c" stroke-width="1.21834" stroke-linecap="round" stroke-linejoin="round"/>
<path d="M3.62724 4.57637H14.8488L12.2304 9.90661L6.9189 9.3378C6.37706 9.27983 5.86104 9.0724 5.42651 8.73786C4.99198 8.40333 4.65543 7.95439 4.45315 7.43947L2.31881 2.01024C2.26347 1.8688 2.16774 1.74749 2.04399 1.66198C1.92024 1.57647 1.77414 1.53067 1.62457 1.53052H0.634827" stroke="#000a8c" stroke-width="1.21834" stroke-linecap="round" stroke-linejoin="round"/>
</svg>
