<svg width="17" height="13" viewBox="0 0 17 13" fill="none" xmlns="http://www.w3.org/2000/svg">
<path d="M6.69057 2.74642C6.69057 1.94306 7.41398 1.29199 8.30795 1.29199C9.20117 1.29199 9.92534 1.94306 9.92534 2.74642C9.92534 3.12335 9.78827 3.46754 9.55069 3.72644C9.09609 4.2214 8.41608 4.72017 8.41608 5.36286V5.57912M8.41608 5.57912C8.97938 5.56998 9.53219 5.73194 10.0015 6.04362L15.6616 9.85863C16.6561 10.5295 16.1283 11.9527 14.8849 11.9527H2.24886C1.01831 11.9527 0.482232 10.5554 1.45083 9.87386L6.85429 6.07332C7.31293 5.75492 7.85701 5.5824 8.41532 5.57836L8.41608 5.57912Z" stroke="#000a8c" stroke-width="1.01528" stroke-linecap="round"/>
</svg>
