<svg width="17" height="18" viewBox="0 0 17 18" fill="none" xmlns="http://www.w3.org/2000/svg">
<path d="M15.0042 7.11616C15.6097 7.46929 16.1006 7.99323 16.4171 8.62409C16.7336 9.25496 16.8621 9.96547 16.7868 10.669C16.7114 11.3725 16.4356 12.0386 15.993 12.5861C15.5503 13.1336 14.9599 13.5388 14.2938 13.7523C14.0583 14.8344 13.4651 15.8026 12.6123 16.4967C11.7594 17.1907 10.6981 17.5689 9.60412 17.5687H7.8041C7.64497 17.5687 7.49235 17.5047 7.37983 17.3907C7.26731 17.2767 7.20409 17.1222 7.20409 16.961C7.20409 16.7998 7.26731 16.6452 7.37983 16.5313C7.49235 16.4173 7.64497 16.3533 7.8041 16.3533H9.60412C10.3489 16.3535 11.0754 16.1199 11.6836 15.6845C12.2918 15.2492 12.7518 14.6336 13.0002 13.9225H12.6042C12.445 13.9225 12.2924 13.8584 12.1799 13.7445C12.0674 13.6305 12.0041 13.4759 12.0041 13.3148V7.2377C12.0041 7.07653 12.0674 6.92196 12.1799 6.80799C12.2924 6.69402 12.445 6.63 12.6042 6.63H13.2042C13.3986 6.63 13.5894 6.6458 13.7766 6.67618C13.6415 5.32816 13.0172 4.07891 12.0246 3.17047C11.032 2.26204 9.74189 1.7591 8.4041 1.7591C7.06632 1.7591 5.77616 2.26204 4.7836 3.17047C3.79103 4.07891 3.16673 5.32816 3.03164 6.67618C3.22094 6.64545 3.41234 6.63001 3.60405 6.63H4.20406C4.36319 6.63 4.5158 6.69402 4.62833 6.80799C4.74085 6.92196 4.80406 7.07653 4.80406 7.2377V13.3148C4.80406 13.4759 4.74085 13.6305 4.62833 13.7445C4.5158 13.8584 4.36319 13.9225 4.20406 13.9225H3.60405C2.81082 13.9234 2.0395 13.6589 1.40994 13.1701C0.780383 12.6814 0.327827 11.9957 0.12259 11.2196C-0.0826479 10.4436 -0.0290755 9.62061 0.274983 8.87857C0.579042 8.13653 1.11656 7.51697 1.80403 7.11616C1.80403 5.34325 2.49939 3.64295 3.73715 2.38932C4.9749 1.13568 6.65366 0.431396 8.4041 0.431396C10.1546 0.431396 11.8333 1.13568 13.0711 2.38932C14.3088 3.64295 15.0042 5.34325 15.0042 7.11616ZM3.60405 7.84541C2.96752 7.84541 2.35707 8.10151 1.90697 8.55738C1.45688 9.01325 1.20402 9.63154 1.20402 10.2762C1.20402 10.9209 1.45688 11.5392 1.90697 11.9951C2.35707 12.4509 2.96752 12.7071 3.60405 12.7071V7.84541ZM15.6042 10.2762C15.6042 9.63154 15.3513 9.01325 14.9012 8.55738C14.4511 8.10151 13.8407 7.84541 13.2042 7.84541V12.7071C13.8407 12.7071 14.4511 12.4509 14.9012 11.9951C15.3513 11.5392 15.6042 10.9209 15.6042 10.2762Z" fill="#000A8D"/>
</svg>
