<svg width="16" height="14" viewBox="0 0 16 14" fill="none" xmlns="http://www.w3.org/2000/svg">
<path d="M11.4863 0.789062C10.0918 0.789062 8.87922 1.41793 8.16602 2.4718C7.45281 1.41793 6.24023 0.789062 4.8457 0.789062C3.78936 0.790293 2.77663 1.21047 2.02968 1.95742C1.28273 2.70437 0.862558 3.71709 0.861328 4.77344C0.861328 6.7125 2.06992 8.73059 4.45391 10.7706C5.54633 11.7014 6.72634 12.5243 7.97742 13.2276C8.0354 13.2588 8.1002 13.2751 8.16602 13.2751C8.23184 13.2751 8.29663 13.2588 8.35461 13.2276C9.60569 12.5243 10.7857 11.7014 11.8781 10.7706C14.2621 8.73059 15.4707 6.7125 15.4707 4.77344C15.4695 3.71709 15.0493 2.70437 14.3023 1.95742C13.5554 1.21047 12.5427 0.790293 11.4863 0.789062ZM8.16602 12.4175C7.07629 11.7886 1.6582 8.47359 1.6582 4.77344C1.65908 3.92833 1.99519 3.11809 2.59277 2.52051C3.19035 1.92292 4.0006 1.58682 4.8457 1.58594C6.19242 1.58594 7.32332 2.30512 7.79746 3.46324C7.82748 3.53632 7.87855 3.59882 7.94417 3.64281C8.00979 3.6868 8.08701 3.71029 8.16602 3.71029C8.24502 3.71029 8.32224 3.6868 8.38786 3.64281C8.45349 3.59882 8.50455 3.53632 8.53457 3.46324C9.00871 2.30512 10.1396 1.58594 11.4863 1.58594C12.3314 1.58682 13.1417 1.92292 13.7393 2.52051C14.3368 3.11809 14.6729 3.92833 14.6738 4.77344C14.6738 8.47359 9.25574 11.7886 8.16602 12.4175Z" fill="#000A8D"/>
</svg>
