<svg width="5" height="4" viewBox="0 0 8 7" fill="none" xmlns="http://www.w3.org/2000/svg">
<path d="M5.81818 0C5.05455 0 4.39055 0.35256 4 0.943387C3.60945 0.35256 2.94545 0 2.18182 0C1.60337 0.000689712 1.04881 0.236252 0.639784 0.655012C0.230759 1.07377 0.000673677 1.64153 0 2.23375C0 3.32084 0.661818 4.45223 1.96727 5.59591C2.56548 6.11777 3.21164 6.57909 3.89673 6.97339C3.92848 6.99086 3.96396 7 4 7C4.03604 7 4.07152 6.99086 4.10327 6.97339C4.78836 6.57909 5.43452 6.11777 6.03273 5.59591C7.33818 4.45223 8 3.32084 8 2.23375C7.99933 1.64153 7.76924 1.07377 7.36022 0.655012C6.95119 0.236252 6.39663 0.000689712 5.81818 0ZM4 6.5192C3.40327 6.16664 0.436364 4.30816 0.436364 2.23375C0.436845 1.75996 0.620895 1.30571 0.948127 0.970694C1.27536 0.635673 1.71904 0.447243 2.18182 0.44675C2.91927 0.44675 3.53855 0.849941 3.79818 1.49922C3.81462 1.54019 3.84258 1.57523 3.87852 1.59989C3.91445 1.62455 3.95674 1.63772 4 1.63772C4.04326 1.63772 4.08555 1.62455 4.12148 1.59989C4.15742 1.57523 4.18538 1.54019 4.20182 1.49922C4.46145 0.849941 5.08073 0.44675 5.81818 0.44675C6.28096 0.447243 6.72464 0.635673 7.05187 0.970694C7.3791 1.30571 7.56315 1.75996 7.56364 2.23375C7.56364 4.30816 4.59673 6.16664 4 6.5192Z" fill="#000A8D"/>
</svg>
