<svg width="15" height="14" viewBox="0 0 15 14" fill="none" xmlns="http://www.w3.org/2000/svg">
<path d="M12.4001 5.47996L8.27551 1.35537C8.08214 1.16206 7.81991 1.05347 7.54649 1.05347C7.27307 1.05347 7.01084 1.16206 6.81747 1.35537L2.69288 5.47996C2.59674 5.57551 2.52053 5.6892 2.46866 5.81444C2.4168 5.93967 2.39032 6.07395 2.39075 6.2095V11.159C2.39075 11.3231 2.45594 11.4805 2.57196 11.5965C2.68799 11.7125 2.84535 11.7777 3.00944 11.7777H6.30911C6.4732 11.7777 6.63057 11.7125 6.74659 11.5965C6.86262 11.4805 6.9278 11.3231 6.9278 11.159V8.47803H8.16518V11.159C8.16518 11.3231 8.23036 11.4805 8.34639 11.5965C8.46242 11.7125 8.61978 11.7777 8.78387 11.7777H12.0835C12.2476 11.7777 12.405 11.7125 12.521 11.5965C12.637 11.4805 12.7022 11.3231 12.7022 11.159V6.2095C12.7027 6.07395 12.6762 5.93967 12.6243 5.81444C12.5725 5.6892 12.4962 5.57551 12.4001 5.47996ZM11.4649 10.5403H9.40256V7.85934C9.40256 7.69525 9.33737 7.53788 9.22135 7.42186C9.10532 7.30583 8.94795 7.24065 8.78387 7.24065H6.30911C6.14503 7.24065 5.98766 7.30583 5.87163 7.42186C5.75561 7.53788 5.69042 7.69525 5.69042 7.85934V10.5403H3.62813V6.29457L7.54649 2.37621L11.4649 6.29457V10.5403Z" fill="#464646"/>
</svg>
