<svg width="14" height="13" viewBox="0 0 14 13" fill="none" xmlns="http://www.w3.org/2000/svg">
<g clip-path="url(#clip0_640_3808)">
<path d="M8.36368 5.60703H5.51057C4.46787 5.60703 3.94652 5.60703 3.72599 5.32885C3.50492 5.05015 3.71885 4.66282 4.1467 3.88867L4.91168 2.50382C5.1685 2.03882 5.29719 1.80632 5.54411 1.67636C5.79214 1.5459 6.10561 1.5459 6.73145 1.5459H7.14391C7.77029 1.5459 8.08321 1.5459 8.33014 1.67585C8.57761 1.80632 8.7063 2.03882 8.96258 2.50331L9.7281 3.88917C10.156 4.66282 10.3699 5.05015 10.1488 5.32885C9.92828 5.60703 9.40638 5.60703 8.36424 5.60703M6.93713 5.60703V10.1758M6.93713 10.1758C6.45097 10.1758 6.20735 10.1758 6.01432 10.2804C5.96977 10.3046 5.92779 10.3327 5.88893 10.3641C5.7201 10.5002 5.64365 10.7129 5.48967 11.1388L5.28729 11.6987M6.93713 10.1758C7.42328 10.1758 7.6669 10.1758 7.85993 10.2804C7.90448 10.3046 7.94646 10.3327 7.98532 10.3641C8.15416 10.5002 8.23115 10.7129 8.38458 11.1388L8.58696 11.6987M4.73734 11.6987H9.13691M8.86194 5.60703V7.12996" stroke="#464646" stroke-width="0.951829" stroke-linecap="round" stroke-linejoin="round"/>
</g>
<defs>
<clipPath id="clip0_640_3808">
<rect width="13.1987" height="12.1834" fill="white" transform="translate(0.337891 0.530518)"/>
</clipPath>
</defs>
</svg>
