<svg width="23" height="20" viewBox="0 0 23 20" fill="none" xmlns="http://www.w3.org/2000/svg">
<path d="M2.24023 10.5094C2.24023 9.91451 2.47655 9.34398 2.89721 8.92333C3.31786 8.50268 3.88838 8.26636 4.48327 8.26636H8.96936C9.56425 8.26636 10.1348 8.50268 10.5554 8.92333C10.9761 9.34398 11.2124 9.91451 11.2124 10.5094C11.2124 10.8068 11.0942 11.0921 10.8839 11.3024C10.6736 11.5128 10.3883 11.6309 10.0909 11.6309H3.36175C3.06431 11.6309 2.77905 11.5128 2.56872 11.3024C2.35839 11.0921 2.24023 10.8068 2.24023 10.5094Z" stroke="black" stroke-width="0.84114" stroke-linejoin="round"/>
<path d="M6.72623 6.02337C7.65532 6.02337 8.40851 5.27019 8.40851 4.34109C8.40851 3.412 7.65532 2.65881 6.72623 2.65881C5.79713 2.65881 5.04395 3.412 5.04395 4.34109C5.04395 5.27019 5.79713 6.02337 6.72623 6.02337Z" stroke="black" stroke-width="0.84114"/>
<path d="M11.3311 15.9628C11.3311 15.3679 11.5674 14.7973 11.988 14.3767C12.4087 13.956 12.9792 13.7197 13.5741 13.7197H18.0602C18.6551 13.7197 19.2256 13.956 19.6462 14.3767C20.0669 14.7973 20.3032 15.3679 20.3032 15.9628C20.3032 16.2602 20.1851 16.5455 19.9747 16.7558C19.7644 16.9661 19.4791 17.0843 19.1817 17.0843H12.4526C12.1551 17.0843 11.8699 16.9661 11.6595 16.7558C11.4492 16.5455 11.3311 16.2602 11.3311 15.9628Z" stroke="black" stroke-width="0.84114" stroke-linejoin="round"/>
<path d="M15.817 11.4766C16.7461 11.4766 17.4993 10.7234 17.4993 9.79434C17.4993 8.86524 16.7461 8.11206 15.817 8.11206C14.8879 8.11206 14.1348 8.86524 14.1348 9.79434C14.1348 10.7234 14.8879 11.4766 15.817 11.4766Z" stroke="black" stroke-width="0.84114"/>
</svg>
