<svg width="35" height="34" viewBox="0 0 35 34" fill="none" xmlns="http://www.w3.org/2000/svg">
<path d="M21.8608 15.6278V15.6418M8.12438 11.9627C7.51129 11.4915 7.04042 10.86 6.76382 10.1379C6.48721 9.41583 6.41564 8.63134 6.55701 7.87112C6.69839 7.11091 7.0472 6.40459 7.5649 5.83022C8.0826 5.25585 8.74903 4.83581 9.49053 4.61651C10.232 4.39722 11.0197 4.38721 11.7665 4.58759C12.5134 4.78798 13.1903 5.19095 13.7224 5.75198C14.2545 6.31301 14.6212 7.01024 14.7818 7.76661C14.9425 8.52299 14.8908 9.30905 14.6327 10.0379" stroke="black" stroke-width="1.86377" stroke-linecap="round" stroke-linejoin="round"/>
<path d="M23.2575 5.84302V11.159C24.9874 12.1601 26.3045 13.7442 26.973 15.6278H28.8475C29.2182 15.6278 29.5737 15.7751 29.8359 16.0372C30.098 16.2994 30.2453 16.6549 30.2453 17.0257V19.8213C30.2453 20.192 30.098 20.5476 29.8359 20.8097C29.5737 21.0719 29.2182 21.2191 28.8475 21.2191H26.9716C26.5019 22.5471 25.7037 23.7352 24.654 24.676V27.5094C24.654 28.0655 24.4331 28.5988 24.0398 28.992C23.6466 29.3852 23.1133 29.6061 22.5572 29.6061C22.0011 29.6061 21.4678 29.3852 21.0746 28.992C20.6814 28.5988 20.4605 28.0655 20.4605 27.5094V26.6944C19.9986 26.7721 19.531 26.8109 19.0627 26.8105H13.4713C13.003 26.8109 12.5354 26.7721 12.0735 26.6944V27.5094C12.0735 28.0655 11.8526 28.5988 11.4594 28.992C11.0662 29.3852 10.5329 29.6061 9.97676 29.6061C9.42067 29.6061 8.88736 29.3852 8.49414 28.992C8.10093 28.5988 7.88002 28.0655 7.88002 27.5094V24.676C6.61353 23.5437 5.72076 22.0535 5.31987 20.4026C4.91898 18.7518 5.02888 17.0181 5.63502 15.431C6.24116 13.844 7.31496 12.4785 8.71429 11.5152C10.1136 10.5519 11.7725 10.0362 13.4713 10.0365H16.9659L23.2575 5.84302Z" stroke="black" stroke-width="1.86377" stroke-linecap="round" stroke-linejoin="round"/>
</svg>
