<svg width="11" height="11" viewBox="0 0 11 11" fill="none" xmlns="http://www.w3.org/2000/svg">
<path d="M10 4.83332H6V0.833323C6 0.656512 5.92976 0.486943 5.80474 0.361919C5.67971 0.236895 5.51014 0.166656 5.33333 0.166656C5.15652 0.166656 4.98695 0.236895 4.86193 0.361919C4.7369 0.486943 4.66667 0.656512 4.66667 0.833323V4.83332H0.666667C0.489856 4.83332 0.320287 4.90356 0.195262 5.02858C0.070238 5.15361 0 5.32318 0 5.49999C0 5.6768 0.070238 5.84637 0.195262 5.97139C0.320287 6.09642 0.489856 6.16666 0.666667 6.16666H4.66667V10.1667C4.66667 10.3435 4.7369 10.513 4.86193 10.6381C4.98695 10.7631 5.15652 10.8333 5.33333 10.8333C5.51014 10.8333 5.67971 10.7631 5.80474 10.6381C5.92976 10.513 6 10.3435 6 10.1667V6.16666H10C10.1768 6.16666 10.3464 6.09642 10.4714 5.97139C10.5964 5.84637 10.6667 5.6768 10.6667 5.49999C10.6667 5.32318 10.5964 5.15361 10.4714 5.02858C10.3464 4.90356 10.1768 4.83332 10 4.83332Z" fill="white"/>
</svg>
