<svg width="29" height="28" viewBox="0 0 29 28" fill="none" xmlns="http://www.w3.org/2000/svg">
<g clip-path="url(#clip0_760_1071)">
<path d="M27.2713 15.2796C27.0787 17.7004 26.1952 20.015 24.7258 21.9484C23.2564 23.8819 21.2629 25.3529 18.982 26.1867C16.7012 27.0205 14.229 27.182 11.8591 26.6521C9.48914 26.1223 7.32114 24.9232 5.61262 23.1974C3.9041 21.4716 2.72689 19.2917 2.22084 16.9166C1.7148 14.5414 1.90119 12.0709 2.75787 9.79863C3.61456 7.52631 5.10553 5.54767 7.05364 4.09778C9.00176 2.64788 11.3251 1.78769 13.7477 1.61938" stroke="black" stroke-width="1.82136" stroke-linecap="round" stroke-linejoin="round"/>
<path d="M20.0691 16.3999C19.7168 17.3069 19.1438 18.1118 18.4022 18.7418C17.6605 19.3717 16.7735 19.8069 15.8214 20.0079C14.8694 20.2089 13.8822 20.1694 12.9492 19.893C12.0162 19.6166 11.1668 19.1119 10.4778 18.4248C9.78889 17.7376 9.28209 16.8895 9.00328 15.9572C8.72446 15.0249 8.68243 14.0379 8.88097 13.0852C9.07952 12.1326 9.51239 11.2445 10.1404 10.5013C10.7685 9.75801 11.5719 9.18301 12.478 8.82828M14.6246 14.2728L19.5032 9.3942M19.5032 9.3942L23.4061 10.3699L27.309 6.46702L23.4061 5.49129L22.4304 1.58838L18.5275 5.49129L19.5032 9.3942Z" stroke="black" stroke-width="1.82136" stroke-linecap="round" stroke-linejoin="round"/>
</g>
<defs>
<clipPath id="clip0_760_1071">
<rect width="27.3204" height="27.3204" fill="white" transform="translate(0.964844 0.612305)"/>
</clipPath>
</defs>
</svg>
