<svg width="14" height="15" viewBox="0 0 14 15" fill="none" xmlns="http://www.w3.org/2000/svg">
<path d="M0.666016 12C0.666016 11.2044 0.982086 10.4413 1.5447 9.87868C2.1073 9.31607 2.87037 9 3.66602 9H9.66602C10.4617 9 11.2247 9.31607 11.7873 9.87868C12.3499 10.4413 12.666 11.2044 12.666 12C12.666 12.3978 12.508 12.7794 12.2267 13.0607C11.9454 13.342 11.5638 13.5 11.166 13.5H2.16602C1.76819 13.5 1.38666 13.342 1.10536 13.0607C0.824051 12.7794 0.666016 12.3978 0.666016 12Z" stroke="#000B8C" stroke-width="1.125" stroke-linejoin="round"/>
<path d="M6.66602 6C7.90866 6 8.91602 4.99264 8.91602 3.75C8.91602 2.50736 7.90866 1.5 6.66602 1.5C5.42337 1.5 4.41602 2.50736 4.41602 3.75C4.41602 4.99264 5.42337 6 6.66602 6Z" stroke="#000B8C" stroke-width="1.125"/>
</svg>
