<svg width="44" height="43" viewBox="0 0 44 43" fill="none" xmlns="http://www.w3.org/2000/svg">
<rect x="1.52143" y="0.839665" width="40.9572" height="40.9572" rx="20.4786" stroke="#000B8C" stroke-width="1.67933"/>
<path d="M11.8773 28.91C11.8773 27.5676 12.4106 26.2803 13.3598 25.3311C14.3089 24.3819 15.5963 23.8486 16.9387 23.8486H27.0614C28.4038 23.8486 29.6911 24.3819 30.6403 25.3311C31.5895 26.2803 32.1228 27.5676 32.1228 28.91C32.1228 29.5812 31.8561 30.2249 31.3815 30.6995C30.9069 31.174 30.2633 31.4407 29.5921 31.4407H14.408C13.7368 31.4407 13.0931 31.174 12.6185 30.6995C12.1439 30.2249 11.8773 29.5812 11.8773 28.91Z" stroke="#000B8C" stroke-width="1.89801" stroke-linejoin="round"/>
<path d="M22.0009 18.7874C24.0973 18.7874 25.7969 17.0878 25.7969 14.9913C25.7969 12.8948 24.0973 11.1953 22.0009 11.1953C19.9044 11.1953 18.2048 12.8948 18.2048 14.9913C18.2048 17.0878 19.9044 18.7874 22.0009 18.7874Z" stroke="#000B8C" stroke-width="1.89801"/>
</svg>
