<svg width="7" height="6" viewBox="0 0 14 12" fill="none" xmlns="http://www.w3.org/2000/svg">
<path d="M7.07308 11.631L7.07308 11.631L7.07103 11.6321C7.04919 11.6439 7.02479 11.65 7 11.65C6.97521 11.65 6.9508 11.6439 6.92897 11.6321L6.92692 11.631C6.80063 11.5641 5.13618 10.6567 3.50859 9.23099C1.86261 7.78918 0.350103 5.90032 0.35 3.87612C0.351103 2.94125 0.72288 2.045 1.38376 1.38397C2.04463 0.722936 2.94063 0.351103 3.87521 0.35C5.06343 0.35006 6.0864 0.859417 6.72009 1.70359L7 2.07648L7.27991 1.70359C7.9136 0.859417 8.93657 0.350059 10.1248 0.35C11.0594 0.351103 11.9554 0.722936 12.6162 1.38397C13.2771 2.04495 13.6488 2.94112 13.65 3.87591C13.65 5.90019 12.1374 7.78913 10.4914 9.23099C8.86382 10.6567 7.19937 11.5641 7.07308 11.631Z" fill="#FF4D58" stroke="#000A8D" stroke-width="0.7"/>
</svg>
