<svg width="13" height="13" viewBox="0 0 13 13" fill="none" xmlns="http://www.w3.org/2000/svg">
<path fill-rule="evenodd" clip-rule="evenodd" d="M3.45112 8.80424C2.6198 7.73247 2.22801 6.38426 2.35545 5.03388C2.4829 3.6835 3.12 2.43239 4.13715 1.53508C5.15431 0.637763 6.4751 0.161652 7.83084 0.203604C9.18657 0.245556 10.4754 0.802419 11.4351 1.76091C12.3957 2.72006 12.9544 4.00939 12.9973 5.36615C13.0403 6.72291 12.5643 8.045 11.6663 9.06299C10.7683 10.081 9.51599 10.7183 8.16448 10.845C6.81296 10.9717 5.46399 10.5783 4.39246 9.74491L4.36379 9.77491L1.53579 12.6036C1.47385 12.6655 1.40032 12.7146 1.31939 12.7482C1.23846 12.7817 1.15172 12.7989 1.06413 12.7989C0.976528 12.7989 0.88979 12.7817 0.808861 12.7482C0.727932 12.7146 0.654398 12.6655 0.592458 12.6036C0.530518 12.5416 0.481384 12.4681 0.447863 12.3872C0.414341 12.3062 0.397087 12.2195 0.397087 12.1319C0.397087 12.0443 0.414341 11.9576 0.447863 11.8766C0.481384 11.7957 0.530518 11.7222 0.592458 11.6602L3.42112 8.83224C3.43087 8.82263 3.44087 8.81329 3.45112 8.80424ZM4.83512 2.70424C4.45872 3.07456 4.15937 3.51574 3.95432 4.00233C3.74928 4.48892 3.64261 5.01129 3.64046 5.53932C3.63831 6.06734 3.74072 6.59057 3.9418 7.07881C4.14287 7.56706 4.43863 8.01066 4.812 8.38403C5.18537 8.75741 5.62897 9.05316 6.11722 9.25423C6.60546 9.45531 7.12869 9.55772 7.65671 9.55557C8.18474 9.55342 8.70711 9.44675 9.1937 9.24171C9.68029 9.03666 10.1215 8.73731 10.4918 8.36091C11.2318 7.6087 11.6447 6.59453 11.6404 5.53932C11.6361 4.4841 11.215 3.47333 10.4689 2.72718C9.7227 1.98102 8.71193 1.55994 7.65671 1.55564C6.6015 1.55134 5.58733 1.96418 4.83512 2.70424Z" fill="#737373"/>
</svg>
