<svg width="51" height="52" viewBox="0 0 51 52" fill="none" xmlns="http://www.w3.org/2000/svg">
<rect x="0.487427" y="0.882324" width="50.3241" height="50.8772" rx="5.53013" fill="#E0EEFA"/>
<path d="M36.725 23.1595C37.741 23.7521 38.5648 24.6313 39.0959 25.6899C39.627 26.7484 39.8425 27.9407 39.7162 29.1212C39.5898 30.3018 39.127 31.4195 38.3842 32.3382C37.6414 33.2569 36.6507 33.9368 35.5329 34.2951C35.1378 36.1109 34.1424 37.7355 32.7113 38.9001C31.2802 40.0647 29.4994 40.6994 27.6636 40.699H24.6431C24.3761 40.699 24.12 40.5916 23.9312 40.4004C23.7424 40.2091 23.6363 39.9498 23.6363 39.6793C23.6363 39.4088 23.7424 39.1495 23.9312 38.9582C24.12 38.767 24.3761 38.6596 24.6431 38.6596H27.6636C28.9133 38.6599 30.1324 38.2679 31.1529 37.5374C32.1735 36.8069 32.9454 35.7739 33.3622 34.5806H32.6977C32.4307 34.5806 32.1746 34.4732 31.9858 34.2819C31.7969 34.0907 31.6909 33.8313 31.6909 33.5609V23.3635C31.6909 23.093 31.7969 22.8336 31.9858 22.6424C32.1746 22.4512 32.4307 22.3437 32.6977 22.3437H33.7045C34.0307 22.3437 34.3509 22.3702 34.665 22.4212C34.4383 20.1592 33.3908 18.063 31.7252 16.5386C30.0597 15.0142 27.8948 14.1703 25.6499 14.1703C23.4051 14.1703 21.2402 15.0142 19.5747 16.5386C17.9091 18.063 16.8615 20.1592 16.6349 22.4212C16.9525 22.3697 17.2737 22.3438 17.5954 22.3437H18.6022C18.8692 22.3437 19.1253 22.4512 19.3141 22.6424C19.5029 22.8336 19.609 23.093 19.609 23.3635V33.5609C19.609 33.8313 19.5029 34.0907 19.3141 34.2819C19.1253 34.4732 18.8692 34.5806 18.6022 34.5806H17.5954C16.2643 34.5821 14.97 34.1383 13.9136 33.3182C12.8572 32.498 12.0978 31.3475 11.7534 30.0452C11.409 28.743 11.4989 27.362 12.0092 26.1169C12.5194 24.8717 13.4213 23.8321 14.5749 23.1595C14.5749 20.1845 15.7417 17.3314 17.8187 15.2278C19.8957 13.1242 22.7127 11.9424 25.6499 11.9424C28.5872 11.9424 31.4042 13.1242 33.4812 15.2278C35.5581 17.3314 36.725 20.1845 36.725 23.1595ZM17.5954 24.3832C16.5273 24.3832 15.5029 24.813 14.7477 25.5779C13.9924 26.3429 13.5681 27.3804 13.5681 28.4622C13.5681 29.544 13.9924 30.5815 14.7477 31.3464C15.5029 32.1114 16.5273 32.5411 17.5954 32.5411V24.3832ZM37.7318 28.4622C37.7318 27.3804 37.3075 26.3429 36.5522 25.5779C35.797 24.813 34.7726 24.3832 33.7045 24.3832V32.5411C34.7726 32.5411 35.797 32.1114 36.5522 31.3464C37.3075 30.5815 37.7318 29.544 37.7318 28.4622Z" fill="#000A8D"/>
</svg>
