<svg width="15" height="15" viewBox="0 0 15 15" fill="none" xmlns="http://www.w3.org/2000/svg">
<path d="M7.77741 1.93652C6.26952 1.93652 4.8234 2.53553 3.75716 3.60177C2.69092 4.668 2.09192 6.11413 2.09192 7.62201C2.09192 9.1299 2.69092 10.576 3.75716 11.6423C4.8234 12.7085 6.26952 13.3075 7.77741 13.3075C9.2853 13.3075 10.7314 12.7085 11.7977 11.6423C12.8639 10.576 13.4629 9.1299 13.4629 7.62201C13.4629 6.11413 12.8639 4.668 11.7977 3.60177C10.7314 2.53553 9.2853 1.93652 7.77741 1.93652ZM6.59483 2.78864C7.3722 2.59827 8.18404 2.59827 8.96141 2.78864L7.77741 3.47871L6.59483 2.78864ZM5.71073 3.09565L7.42349 4.09417V5.30233L5.4556 6.68959L4.34693 6.28663L3.90204 4.50139C4.3873 3.89823 5.00662 3.41736 5.71073 3.09565ZM3.37187 5.30944L3.65116 6.43232L2.82393 7.16717C2.88433 6.50126 3.0748 5.87373 3.37187 5.30944ZM2.82748 8.11381L4.1259 6.9625L5.22462 7.36119L5.96729 9.69935L5.45773 10.4619H3.69238C3.20734 9.76635 2.90926 8.95777 2.82677 8.11381M4.29291 11.1726H5.39732L5.75977 12.1704C5.21498 11.9284 4.71813 11.5904 4.29291 11.1726ZM6.62112 12.4618L6.04191 10.8656L6.5465 10.1101H9.01045L9.51575 10.8656L8.93654 12.4611C8.17548 12.6432 7.38219 12.6439 6.62112 12.4618ZM9.7986 12.1683L10.1611 11.1719H11.2619C10.8376 11.5888 10.342 11.9263 9.7986 12.1683ZM11.8624 10.4612H10.1014L9.58966 9.69722L10.3181 7.36119L11.4318 6.96036L12.728 8.1131C12.6456 8.95706 12.3475 9.76564 11.8624 10.4612ZM12.7316 7.16504L11.9072 6.43232L12.1865 5.31513C12.4807 5.87657 12.6712 6.50197 12.7316 7.16504ZM11.6556 4.50565L11.2114 6.2845L10.0857 6.68959L8.13346 5.30233V4.09417L9.84551 3.09494C10.5508 3.41759 11.171 3.90068 11.6563 4.50565M5.9282 7.22758L7.77741 5.92134L9.61524 7.22687L8.93867 9.39873H6.61686L5.9282 7.22758Z" fill="#000a8c"/>
</svg>
