<svg width="12" height="13" viewBox="0 0 12 13" fill="none" xmlns="http://www.w3.org/2000/svg">
<path d="M6.00098 7.72203C6.60376 7.72203 7.09241 7.22959 7.09241 6.62212C7.09241 6.01466 6.60376 5.52222 6.00098 5.52222C5.3982 5.52222 4.90955 6.01466 4.90955 6.62212C4.90955 7.22959 5.3982 7.72203 6.00098 7.72203Z" stroke="#464646" stroke-width="0.812227"/>
<path d="M2.7265 6.62234H4.90936M7.09222 6.62234H9.27508M4.36365 9.4799L5.45508 7.57486M6.54651 5.66982L7.63794 3.76479M7.63794 9.4799L6.54651 7.57486M5.45508 5.66982L4.36365 3.76479M3.27222 1.85865C4.10144 1.37518 5.04279 1.12132 6.00079 1.12281C9.01477 1.12281 11.4579 3.58495 11.4579 6.62234C11.4579 9.65974 9.01477 12.1219 6.00079 12.1219C2.98681 12.1219 0.54364 9.65974 0.54364 6.62234C0.54364 5.62088 0.809403 4.68101 1.27381 3.87258" stroke="#464646" stroke-width="0.812227" stroke-linecap="round"/>
<path d="M7.63789 9.48078C6.94993 9.88096 6.14107 10.0155 5.36201 9.85923C4.58294 9.703 3.8868 9.26669 3.40327 8.63157C2.91974 7.99646 2.68179 7.20586 2.73377 6.40707C2.78574 5.60827 3.12408 4.85576 3.68577 4.28971C4.24745 3.72367 4.99417 3.38269 5.78681 3.33032C6.57945 3.27794 7.36395 3.51773 7.99417 4.00502C8.62438 4.49231 9.05734 5.19386 9.21237 5.97897C9.36739 6.76409 9.23393 7.57923 8.83683 8.27253" stroke="#464646" stroke-width="0.812227" stroke-linecap="round"/>
</svg>
