<svg width="15" height="15" viewBox="0 0 15 15" fill="none" xmlns="http://www.w3.org/2000/svg">
<path d="M10.5 6.15384L4.16667 2.5348M8.23086 1.23827L12.7547 3.82318C13.0318 3.98146 13.2621 4.21019 13.4222 4.48619C13.5824 4.76219 13.6667 5.07564 13.6667 5.39475V9.62723C13.6667 9.94633 13.5824 10.2598 13.4222 10.5358C13.2621 10.8118 13.0318 11.0405 12.7547 11.1988L8.23086 13.7837C7.9575 13.9398 7.64814 14.022 7.33333 14.022C7.01853 14.022 6.70916 13.9398 6.43581 13.7837L1.912 11.1988C1.63491 11.0405 1.40461 10.8118 1.24444 10.5358C1.08427 10.2598 0.999943 9.94633 1 9.62723V5.39475C0.999943 5.07564 1.08427 4.76219 1.24444 4.48619C1.40461 4.21019 1.63491 3.98146 1.912 3.82318L6.43581 1.23827C6.70916 1.08213 7.01853 1 7.33333 1C7.64814 1 7.9575 1.08213 8.23086 1.23827Z" stroke="white" stroke-width="0.904762" stroke-linecap="round" stroke-linejoin="round"/>
<path d="M1.45239 4.79688L6.47563 7.50211C6.73925 7.64402 7.03396 7.71831 7.33334 7.71831C7.63273 7.71831 7.92744 7.64402 8.19106 7.50211L13.2143 4.79688M7.33334 7.96354V13.8445" stroke="white" stroke-width="0.904762" stroke-linecap="round" stroke-linejoin="round"/>
</svg>
